<?xml version="1.0" encoding="UTF-8" standalone="no"?>
<svg
   xmlns:dc="http://purl.org/dc/elements/1.1/"
   xmlns:cc="http://creativecommons.org/ns#"
   xmlns:rdf="http://www.w3.org/1999/02/22-rdf-syntax-ns#"
   xmlns:svg="http://www.w3.org/2000/svg"
   xmlns="http://www.w3.org/2000/svg"
   viewBox="0 0 589.33331 590.66669"
   height="20"
   width="20"
   xml:space="preserve"
   id="svg2"
   version="1.1"><metadata
     id="metadata8"><rdf:RDF><cc:Work
         rdf:about=""><dc:format>image/svg+xml</dc:format><dc:type
           rdf:resource="http://purl.org/dc/dcmitype/StillImage" /></cc:Work></rdf:RDF></metadata><defs
     id="defs6"><clipPath
       id="clipPath20"
       clipPathUnits="userSpaceOnUse"><path
         id="path18"
         d="M 0,0 H 442 V 443 H 0 Z" /></clipPath></defs><g
     transform="matrix(1.3333333,0,0,-1.3333333,0,590.66667)"
     id="g10"><g
       id="g12" /><g
       id="g14"><g
         clip-path="url(#clipPath20)"
         id="g16"><path
           id="path22"
           style="fill:#231f20;fill-opacity:1;fill-rule:nonzero;stroke:none"
           d="m 349.516,349.8166 c 70.832,-70.828 70.832,-186.067 0,-256.89495 -70.828,-70.832 -186.067,-70.832 -256.895,0 -70.832,70.82795 -70.824,186.07395 0,256.89495 70.82,70.824 186.067,70.832 256.895,0 m 27.699,27.699 c -86.25,86.25 -226.059,86.25 -312.293,0 -86.234,-86.25 -86.234,-226.027 0,-312.27695 86.234,-86.25 226.058,-86.25 312.293,0 86.234,86.24995 86.25,226.05795 0,312.29295" /><g
           transform="matrix(1,0,0,-1,-7190,1030)"
           id="g24"><path
             id="path26"
             style="fill:none;stroke:#231f20;stroke-width:40;stroke-linecap:round;stroke-linejoin:round;stroke-miterlimit:10;stroke-dasharray:none;stroke-opacity:1"
             d="m 7319.379,893.184 177.18,-177.172" /></g><g
           transform="matrix(1,0,0,-1,-7190,1030)"
           id="g28"><path
             id="path30"
             style="fill:none;stroke:#231f20;stroke-width:40;stroke-linecap:round;stroke-linejoin:round;stroke-miterlimit:10;stroke-dasharray:none;stroke-opacity:1"
             d="m 7333.73,722.73 164.965,164.954" /></g></g></g></g></svg>