<?xml version="1.0" encoding="UTF-8"?>
<svg width="26px" height="26px" viewBox="0 0 26 26" version="1.1" xmlns="http://www.w3.org/2000/svg" xmlns:xlink="http://www.w3.org/1999/xlink">
    <!-- Generator: Sketch 47.1 (45422) - http://www.bohemiancoding.com/sketch -->
    <title>Icons/Social/Facebook</title>
    <desc>Created with Sketch.</desc>
    <defs></defs>
    <g id="Symbols" stroke="none" stroke-width="1" fill="none" fill-rule="evenodd">
        <g id="Icons/Social/Facebook" fill="#000000">
            <path d="M24.5648,-3.55271368e-15 L1.4352,-3.55271368e-15 C0.6422,-3.55271368e-15 7.06990022e-13,0.6422 7.06990022e-13,1.4352 L7.06990022e-13,24.5648 C7.06990022e-13,25.3578 0.6422,26 1.4352,26 L13.8874667,26 L13.8874667,15.9310667 L10.4988,15.9310667 L10.4988,12.0076667 L13.8874667,12.0076667 L13.8874667,9.11386667 C13.8874667,5.75553333 15.938,3.92686667 18.9340667,3.92686667 C20.3692667,3.92686667 21.6025333,4.03346667 21.9622,4.08113333 L21.9622,7.59113333 L19.8839333,7.592 C18.2546,7.592 17.9391333,8.36593333 17.9391333,9.50213333 L17.9391333,12.0076667 L21.8252667,12.0076667 L21.3191333,15.9310667 L17.9391333,15.9310667 L17.9391333,26 L24.5648,26 C25.3578,26 26,25.3578 26,24.5648 L26,1.4352 C26,0.6422 25.3578,-3.55271368e-15 24.5648,-3.55271368e-15" id="Fill-1"></path>
        </g>
    </g>
</svg>