<?xml version="1.0" encoding="UTF-8"?>
<svg width="26px" height="26px" viewBox="0 0 26 26" version="1.1" xmlns="http://www.w3.org/2000/svg" xmlns:xlink="http://www.w3.org/1999/xlink">
    <!-- Generator: Sketch 47.1 (45422) - http://www.bohemiancoding.com/sketch -->
    <title>Icons/Social/Instagram</title>
    <desc>Created with Sketch.</desc>
    <defs>
        <polygon id="path-1" points="2.34910471e-20 0.000173333333 2.34910471e-20 26 25.99974 26 25.99974 0.000173333333 0 0.000173333333"></polygon>
    </defs>
    <g id="Symbols" stroke="none" stroke-width="1" fill="none" fill-rule="evenodd">
        <g id="Icons/Social/Instagram">
            <g id="Page-1">
                <g id="Group-3">
                    <mask id="mask-2" fill="white">
                        <use xlink:href="#path-1"></use>
                    </mask>
                    <g id="Clip-2"></g>
                    <path d="M23.58174,18.25304 C23.52454,19.5201067 23.3122067,20.2091067 23.1336733,20.6667067 C22.89794,21.2733733 22.61714,21.7067067 22.1612733,22.1617067 C21.70714,22.6167067 21.2738067,22.8983733 20.66714,23.1341067 C20.2086733,23.31264 19.52054,23.5241067 18.2534733,23.5813067 C16.8824067,23.6445733 16.4716067,23.6575733 12.99974,23.6575733 C9.52874,23.6575733 9.11794,23.6445733 7.74687333,23.5813067 C6.47980667,23.5241067 5.79080667,23.31264 5.33320667,23.1341067 C4.72654,22.8983733 4.29320667,22.6167067 3.83820667,22.1617067 C3.38320667,21.7067067 3.10154,21.2733733 2.86580667,20.6667067 C2.68814,20.2091067 2.47580667,19.5201067 2.41860667,18.25304 C2.35534,16.8819733 2.34234,16.4711733 2.34234,13.0001733 C2.34234,9.52917333 2.35534,9.11750667 2.41860667,7.74644 C2.47580667,6.47937333 2.68814,5.79124 2.86580667,5.33277333 C3.10154,4.72610667 3.38320667,4.29364 3.83820667,3.83864 C4.29320667,3.38364 4.72654,3.10197333 5.33320667,2.86624 C5.79080667,2.68770667 6.47980667,2.47624 7.74687333,2.41817333 C9.11794,2.35577333 9.52874,2.34277333 12.99974,2.34277333 C16.47074,2.34277333 16.8824067,2.35577333 18.2534733,2.41817333 C19.52054,2.47624 20.2086733,2.68770667 20.66714,2.86624 C21.2738067,3.10197333 21.70714,3.38364 22.1612733,3.83864 C22.61714,4.29364 22.89794,4.72610667 23.1336733,5.33277333 C23.3122067,5.79124 23.52454,6.47937333 23.58174,7.74644 C23.64414,9.11750667 23.65714,9.52917333 23.65714,13.0001733 C23.65714,16.4711733 23.64414,16.8819733 23.58174,18.25304 M25.92174,7.63984 C25.8584733,6.25664 25.6392067,5.31110667 25.3176733,4.48430667 C24.98574,3.62977333 24.5402733,2.90524 23.8174733,2.18244 C23.09554,1.45964 22.37014,1.01504 21.5156067,0.683106667 C20.6888067,0.360706667 19.7432733,0.14144 18.3600733,0.0781733333 C16.9734067,0.0149066667 16.53054,0.000173333333 12.99974,0.000173333333 C9.46894,0.000173333333 9.02694,0.0149066667 7.64027333,0.0781733333 C6.25620667,0.14144 5.31154,0.360706667 4.48474,0.683106667 C3.63020667,1.01504 2.90480667,1.45964 2.18200667,2.18244 C1.45920667,2.90524 1.01460667,3.62977333 0.682673333,4.48430667 C0.36114,5.31110667 0.141006667,6.25664 0.07774,7.63984 C0.01534,9.02650667 -0.00026,9.46937333 -0.00026,13.0001733 C-0.00026,16.5309733 0.01534,16.9729733 0.07774,18.3605067 C0.141006667,19.7437067 0.36114,20.68924 0.682673333,21.51604 C1.01460667,22.3705733 1.45920667,23.0951067 2.18200667,23.8179067 C2.90480667,24.5407067 3.63020667,24.9853067 4.48474,25.31724 C5.31154,25.6387733 6.25620667,25.8589067 7.64027333,25.9221733 C9.02694,25.98544 9.46894,26.0001733 12.99974,26.0001733 C16.53054,26.0001733 16.9734067,25.98544 18.3600733,25.9221733 C19.7432733,25.8589067 20.6888067,25.6387733 21.5156067,25.31724 C22.37014,24.9853067 23.09554,24.5407067 23.8174733,23.8179067 C24.5402733,23.0951067 24.98574,22.3705733 25.3176733,21.51604 C25.6392067,20.68924 25.8584733,19.7437067 25.92174,18.3605067 C25.9850067,16.9729733 25.99974,16.5309733 25.99974,13.0001733 C25.99974,9.46937333 25.9850067,9.02650667 25.92174,7.63984" id="Fill-1" fill="#000000" mask="url(#mask-2)"></path>
                </g>
                <path d="M12.9998267,17.33342 C10.60696,17.33342 8.66649333,15.3929533 8.66649333,13.0000867 C8.66649333,10.6063533 10.60696,8.66675333 12.9998267,8.66675333 C15.39356,8.66675333 17.33316,10.6063533 17.33316,13.0000867 C17.33316,15.3929533 15.39356,17.33342 12.9998267,17.33342 M12.9998267,6.32415333 C9.31302667,6.32415333 6.32389333,9.31328667 6.32389333,13.0000867 C6.32389333,16.6868867 9.31302667,19.67602 12.9998267,19.67602 C16.6866267,19.67602 19.67576,16.6868867 19.67576,13.0000867 C19.67576,9.31328667 16.6866267,6.32415333 12.9998267,6.32415333" id="Fill-4" fill="#000000"></path>
                <path d="M19.9394867,4.5006 C19.07802,4.5006 18.3794867,5.19913333 18.3794867,6.0606 C18.3794867,6.92206667 19.07802,7.6206 19.9394867,7.6206 C20.8009533,7.6206 21.4994867,6.92206667 21.4994867,6.0606 C21.4994867,5.19913333 20.8009533,4.5006 19.9394867,4.5006" id="Fill-6" fill="#000000"></path>
            </g>
        </g>
    </g>
</svg>