<?xml version="1.0" encoding="utf-8"?>
<!-- Generator: Adobe Illustrator 21.1.0, SVG Export Plug-In . SVG Version: 6.00 Build 0)  -->
<!DOCTYPE svg PUBLIC "-//W3C//DTD SVG 1.1//EN" "http://www.w3.org/Graphics/SVG/1.1/DTD/svg11.dtd">
<svg version="1.1" id="Layer_1" xmlns="http://www.w3.org/2000/svg" xmlns:xlink="http://www.w3.org/1999/xlink" x="0px" y="0px"
	 viewBox="0 0 17.5 25.5" style="enable-background:new 0 0 17.5 25.5;" xml:space="preserve">
<style type="text/css">
	.st0{fill:none;stroke:#000000;stroke-width:1.5;stroke-linecap:round;stroke-linejoin:round;}
</style>
<title>Icons/Store Finder</title>
<desc>Created with Sketch.</desc>
<g id="Symbols">
	<g id="Icons_x2F_Store-Finder">
		<g id="Page-1">
			<path id="Stroke-1" class="st0" d="M1.4,11.5l7.4,13.3l7.4-13.3c0.2-0.5,0.4-0.9,0.5-1.4c0.1-0.5,0.2-1,0.2-1.6
				c0-0.5-0.1-1.1-0.2-1.6c-0.1-0.5-0.3-1-0.5-1.4c-0.2-0.5-0.5-0.9-0.7-1.3c-0.3-0.4-0.6-0.8-1-1.1c-0.4-0.3-0.8-0.7-1.2-0.9
				c-0.4-0.3-0.9-0.5-1.4-0.7c-0.5-0.2-1-0.3-1.5-0.4C9.8,0.8,9.3,0.8,8.8,0.8S7.7,0.8,7.1,0.9C6.6,1,6.1,1.2,5.6,1.4
				C5.2,1.6,4.7,1.8,4.3,2.1C3.9,2.3,3.5,2.7,3.1,3c-0.4,0.3-0.7,0.7-1,1.1S1.6,5,1.4,5.5C1.2,5.9,1,6.4,0.9,6.9
				c-0.1,0.5-0.2,1-0.2,1.6C0.8,9,0.8,9.5,0.9,10C1,10.5,1.2,11,1.4,11.5z"/>
			<path id="Stroke-3" d="M10.8,8.8c0,1.1-0.9,2-2,2c-1.1,0-2-0.9-2-2s0.9-2,2-2C9.9,6.8,10.8,7.6,10.8,8.8z"/>
		</g>
	</g>
</g>
</svg>
