<?xml version="1.0" encoding="UTF-8"?>
<svg width="26px" height="26px" viewBox="0 0 26 26" version="1.1" xmlns="http://www.w3.org/2000/svg" xmlns:xlink="http://www.w3.org/1999/xlink">
    <!-- Generator: Sketch 47.1 (45422) - http://www.bohemiancoding.com/sketch -->
    <title>Icons/Social/Twitter</title>
    <desc>Created with Sketch.</desc>
    <defs></defs>
    <g id="Symbols" stroke="none" stroke-width="1" fill="none" fill-rule="evenodd">
        <g id="Icons/Social/Twitter" fill="#000000">
            <path d="M8.177,24.1302 C17.9885333,24.1302 23.3540667,16.0017333 23.3540667,8.95313333 C23.3540667,8.72173333 23.3497333,8.49206667 23.3393333,8.26326667 C24.3802,7.51013333 25.2858667,6.57066667 26,5.5012 C25.0440667,5.92586667 24.0153333,6.21186667 22.9363333,6.341 C24.0378667,5.6806 24.8837333,4.63626667 25.2824,3.39 C24.2510667,4.001 23.1096667,4.4456 21.8954667,4.6848 C20.9222,3.64826667 19.5355333,3 18.0015333,3 C15.0557333,3 12.6663333,5.38853333 12.6663333,8.33346667 C12.6663333,8.75206667 12.7131333,9.1594 12.805,9.55026667 C8.372,9.32666667 4.43993333,7.2042 1.8096,3.97673333 C1.35113333,4.76453333 1.0868,5.6806 1.0868,6.65733333 C1.0868,8.50853333 2.02886667,10.1422 3.46146667,11.0981333 C2.58613333,11.0712667 1.76366667,10.8303333 1.0452,10.4308 C1.04433333,10.4533333 1.04433333,10.4758667 1.04433333,10.4984 C1.04433333,13.0819333 2.88253333,15.2390667 5.32393333,15.7287333 C4.875,15.8500667 4.40353333,15.9159333 3.91733333,15.9159333 C3.57326667,15.9159333 3.2396,15.8821333 2.9146,15.8197333 C3.5932,17.9387333 5.56226667,19.4814 7.89793333,19.5247333 C6.07186667,20.9556 3.77173333,21.8084 1.27226667,21.8084 C0.8424,21.8084 0.417733333,21.7832667 -7.06990022e-13,21.7338667 C2.3608,23.2470667 5.1636,24.1302 8.177,24.1302" id="Fill-1"></path>
        </g>
    </g>
</svg>