<?xml version="1.0" encoding="utf-8"?>
<!-- Generator: Adobe Illustrator 16.2.1, SVG Export Plug-In . SVG Version: 6.00 Build 0)  -->
<!DOCTYPE svg PUBLIC "-//W3C//DTD SVG 1.1//EN" "http://www.w3.org/Graphics/SVG/1.1/DTD/svg11.dtd">
<svg version="1.1" id="Layer_1" xmlns="http://www.w3.org/2000/svg" xmlns:xlink="http://www.w3.org/1999/xlink" x="0px" y="0px"
	 width="401.368px" height="66.157px" viewBox="-9.632 0 401.368 66.157" enable-background="new -9.632 0 401.368 66.157"
	 xml:space="preserve">
<g>
	<path d="M52.057,3.688c-5.923,0.008-11.045,4.122-12.332,9.903c-2.788-2.623-7.133-2.643-9.945-0.044
		c-1.535-6.805-8.295-11.076-15.1-9.542C7.875,5.541,3.605,12.301,5.139,19.104c1.534,6.805,8.296,11.077,15.101,9.542
		c5.56-1.254,9.591-6.077,9.838-11.771c1.151-2.57,4.169-3.72,6.738-2.567c1.191,0.533,2.133,1.504,2.63,2.711
		c0.386,6.965,6.346,12.297,13.311,11.91c6.964-0.387,12.297-6.346,11.909-13.31C64.294,8.927,58.76,3.689,52.057,3.688z
		 M17.463,26.45c-5.59,0-10.122-4.53-10.122-10.119c0-5.591,4.532-10.121,10.122-10.121c5.589,0,10.12,4.53,10.12,10.121
		c0,0.324-0.018,0.645-0.047,0.964c-0.107,0.427-0.179,0.862-0.213,1.301C26.26,23.187,22.176,26.44,17.463,26.45z M52.057,26.45
		c-5.59,0-10.12-4.53-10.12-10.119c0-5.591,4.53-10.121,10.12-10.121c5.589,0,10.121,4.53,10.121,10.121
		C62.167,21.915,57.642,26.439,52.057,26.45L52.057,26.45z"/>
	<path d="M35.266,37.221c4.054-4.763,11.246-4.427,16.073-1.084c4.229,2.91,6.729,6.59,9.312,10.822
		c1.349,2.209,2.834,4.146,5.335,5.25c2.303,1.022,5.548,0.627,7.854-0.332c1.837-0.752,2.383-2.498,3.03-4.201
		c0.84,5.848-2.658,13.312-8.44,15.013c-5.149,1.509-10.894,0.074-15.621-2.142c-2.771-1.328-5.415-2.904-7.903-4.709
		c-2.35-1.676-4.513-3.602-6.453-5.738c-1.927-2.157-3.45-2.805-5.686-0.562c-2.229,2.285-4.635,4.395-7.192,6.303
		c-2.484,1.812-5.134,3.387-7.911,4.703c-4.688,2.211-10.462,3.649-15.562,2.141c-5.814-1.693-9.32-9.159-8.472-15.006
		c0.646,1.705,1.19,3.447,3.019,4.199c2.294,0.959,5.547,1.355,7.873,0.334c2.492-1.104,3.946-3.043,5.296-5.25
		c2.601-4.235,5.12-7.916,9.332-10.826c4.854-3.34,12.024-3.682,16.118,1.082"/>
</g>
<g>
	<rect x="88.949" fill="#231F20" width="302.787" height="66.157"/>
	<g>
		<path fill="#FFFFFF" d="M210.994,22.881l-6.553,2.167c-0.966-2.843-2.744-3.901-5.685-3.901c-3.035,0-4.58,1.107-4.58,3.083
			c0,1.637,1.398,2.698,4.052,3.181c3.419,0.626,6.936,1.492,9.104,2.794c1.975,1.156,4.575,3.566,4.575,7.949
			c0,3.325-2.02,10.986-13.681,10.986c-7.135,0-12.052-3.42-13.349-9.154l7.13-1.64c0.819,3.133,3.134,4.676,6.845,4.676
			c3.083,0,5.204-1.301,5.204-3.568c0-1.733-1.305-2.793-4.915-3.515c-5.062-0.966-8.435-2.267-10.071-3.954
			c-1.641-1.685-2.46-3.611-2.46-6.404c0-6.023,4.676-10.458,11.904-10.458C205.211,15.122,209.261,17.869,210.994,22.881z"/>
		<path fill="#FFFFFF" d="M240.574,15.604v6.555h-8.291v26.5h-7.708v-26.5h-8.382v-6.555L240.574,15.604L240.574,15.604z"/>
		<path fill="#FFFFFF" d="M252.661,15.604l6.36,12.576l6.265-12.576h6.938l-10.357,19.13v13.925h-7.71V34.733l-10.46-19.13
			L252.661,15.604L252.661,15.604z"/>
		<path fill="#FFFFFF" d="M284.839,15.604v26.501h13.301v6.554h-21.011V15.604H284.839z"/>
		<path fill="#FFFFFF" d="M303.48,48.657V15.604h7.71v33.055h-7.71V48.657z"/>
		<path fill="#FFFFFF" d="M342.989,22.881l-6.554,2.167c-0.965-2.843-2.747-3.901-5.688-3.901c-3.035,0-4.577,1.107-4.577,3.083
			c0,1.637,1.396,2.698,4.047,3.181c3.422,0.626,6.938,1.492,9.106,2.794c1.976,1.156,4.577,3.566,4.577,7.949
			c0,3.325-2.023,10.986-13.685,10.986c-7.13,0-12.046-3.42-13.349-9.154l7.136-1.64c0.815,3.133,3.129,4.676,6.84,4.676
			c3.085,0,5.203-1.301,5.203-3.568c0-1.733-1.301-2.793-4.916-3.515c-5.058-0.966-8.43-2.267-10.067-3.954
			c-1.641-1.685-2.457-3.611-2.457-6.404c0-6.023,4.675-10.458,11.898-10.458C337.207,15.122,341.252,17.869,342.989,22.881z"/>
		<path fill="#FFFFFF" d="M372.566,15.604v6.555h-8.289v26.5h-7.709v-26.5h-8.383v-6.555L372.566,15.604L372.566,15.604z"/>
	</g>
	<g>
		<g>
			<polygon fill="#FFFFFF" points="143.568,16.204 149.5,16.204 149.5,44.555 167.245,44.555 167.245,49.954 143.568,49.954 			"/>
			<path fill="#FFFFFF" d="M138.107,16.204h-6.807l-7.422,10.649l3.276,4.697L138.107,16.204z M127.26,33.983l-3.434,4.784
				l7.769,11.187h6.991L127.26,33.983z"/>
			<polygon fill="#FFFFFF" points="126.082,32.844 113.802,49.954 107.005,49.954 119.296,32.793 107.488,16.204 114.478,16.204 			
				"/>
		</g>
	</g>
</g>
</svg>
