<?xml version="1.0" encoding="utf-8"?>
<!-- Generator: Adobe Illustrator 16.2.1, SVG Export Plug-In . SVG Version: 6.00 Build 0)  -->
<!DOCTYPE svg PUBLIC "-//W3C//DTD SVG 1.1//EN" "http://www.w3.org/Graphics/SVG/1.1/DTD/svg11.dtd">
<svg version="1.1" id="Layer_1" xmlns="http://www.w3.org/2000/svg" xmlns:xlink="http://www.w3.org/1999/xlink" x="0px" y="0px"
	 width="117.258px" height="25.576px" viewBox="0 0 117.258 25.576" enable-background="new 0 0 117.258 25.576"
	 xml:space="preserve">
<g>
	<rect x="0.203" fill="#000000" width="117.055" height="25.576"/>
	<g>
		<path fill="#FFFFFF" d="M47.385,8.845l-2.534,0.838c-0.373-1.099-1.062-1.509-2.198-1.509c-1.174,0-1.77,0.428-1.77,1.192
			c0,0.633,0.541,1.043,1.565,1.23c1.322,0.242,2.682,0.577,3.521,1.08c0.763,0.447,1.769,1.379,1.769,3.073
			c0,1.285-0.782,4.247-5.29,4.247c-2.757,0-4.657-1.322-5.16-3.539l2.757-0.634c0.316,1.211,1.211,1.808,2.645,1.808
			c1.192,0,2.012-0.503,2.012-1.379c0-0.671-0.503-1.08-1.9-1.359c-1.956-0.373-3.259-0.876-3.893-1.528
			c-0.634-0.652-0.95-1.397-0.95-2.477c0-2.329,1.807-4.042,4.601-4.042C45.149,5.847,46.714,6.908,47.385,8.845z"/>
		<path fill="#FFFFFF" d="M58.82,6.032v2.534h-3.205v10.245h-2.98V8.566h-3.241V6.032H58.82z"/>
		<path fill="#FFFFFF" d="M63.492,6.032l2.459,4.862l2.422-4.862h2.683l-4.005,7.396v5.383h-2.98v-5.383l-4.043-7.396H63.492z"/>
		<path fill="#FFFFFF" d="M75.933,6.032v10.245h5.142v2.533h-8.122V6.032H75.933z"/>
		<path fill="#FFFFFF" d="M83.139,18.811V6.032h2.98v12.778H83.139z"/>
		<path fill="#FFFFFF" d="M98.412,8.845l-2.533,0.838c-0.373-1.099-1.062-1.509-2.198-1.509c-1.174,0-1.77,0.428-1.77,1.192
			c0,0.633,0.54,1.043,1.564,1.23c1.322,0.242,2.683,0.577,3.521,1.08c0.764,0.447,1.77,1.379,1.77,3.073
			c0,1.285-0.782,4.247-5.29,4.247c-2.757,0-4.657-1.322-5.16-3.539l2.758-0.634c0.316,1.211,1.21,1.808,2.645,1.808
			c1.192,0,2.012-0.503,2.012-1.379c0-0.671-0.503-1.08-1.9-1.359c-1.955-0.373-3.259-0.876-3.893-1.528s-0.95-1.397-0.95-2.477
			c0-2.329,1.808-4.042,4.601-4.042C96.177,5.847,97.741,6.908,98.412,8.845z"/>
		<path fill="#FFFFFF" d="M109.847,6.032v2.534h-3.204v10.245h-2.98V8.566h-3.241V6.032H109.847z"/>
	</g>
	<g>
		<g>
			<polygon fill="#FFFFFF" points="21.319,6.265 23.611,6.265 23.611,17.225 30.472,17.225 30.472,19.312 21.319,19.312 			"/>
			<path fill="#FFFFFF" d="M19.207,6.265h-2.63l-2.869,4.117l1.266,1.815L19.207,6.265z M15.013,13.138l-1.327,1.85l3.003,4.324
				h2.703L15.013,13.138z"/>
			<polygon fill="#FFFFFF" points="14.559,12.697 9.812,19.312 7.184,19.312 11.936,12.677 7.37,6.265 10.073,6.265 			"/>
		</g>
	</g>
</g>
</svg>
