<?xml version="1.0" encoding="UTF-8"?>
<svg width="37px" height="26px" viewBox="0 0 37 26" version="1.1" xmlns="http://www.w3.org/2000/svg" xmlns:xlink="http://www.w3.org/1999/xlink">
    <!-- Generator: Sketch 47.1 (45422) - http://www.bohemiancoding.com/sketch -->
    <title>Icons/Social/YouTube</title>
    <desc>Created with Sketch.</desc>
    <defs>
        <polygon id="path-1" points="1.49865833e-15 25.99948 1.49865833e-15 0 36.9032733 0 36.9032733 25.99948"></polygon>
    </defs>
    <g id="Symbols" stroke="none" stroke-width="1" fill="none" fill-rule="evenodd">
        <g id="Icons/Social/YouTube">
            <g id="Page-1">
                <g id="Group-3">
                    <mask id="mask-2" fill="white">
                        <use xlink:href="#path-1"></use>
                    </mask>
                    <g id="Clip-2"></g>
                    <path d="M36.13194,4.05981333 C35.70814,2.46168 34.45754,1.20328 32.8698067,0.776013333 C29.9916067,-0.00052 18.45194,-0.00052 18.45194,-0.00052 C18.45194,-0.00052 6.91140667,-0.00052 4.03407333,0.776013333 C2.44634,1.20328 1.19574,2.46168 0.771073333,4.05981333 C-0.00026,6.95621333 -0.00026,12.99948 -0.00026,12.99948 C-0.00026,12.99948 -0.00026,19.0436133 0.771073333,21.9400133 C1.19574,23.5381467 2.44634,24.7965467 4.03407333,25.2238133 C6.91140667,25.99948 18.45194,25.99948 18.45194,25.99948 C18.45194,25.99948 29.9916067,25.99948 32.8698067,25.2238133 C34.45754,24.7965467 35.70814,23.5381467 36.13194,21.9400133 C36.9032733,19.0436133 36.9032733,12.99948 36.9032733,12.99948 C36.9032733,12.99948 36.9032733,6.95621333 36.13194,4.05981333" id="Fill-1" fill="#000000" mask="url(#mask-2)"></path>
                </g>
                <polygon id="Fill-4" fill="#FFFFFF" points="14.67726 18.4872133 24.3223933 13.0003467 14.67726 7.51261333"></polygon>
            </g>
        </g>
    </g>
</svg>